<?xml version="1.0" encoding="UTF-8" standalone="no"?>
<!-- Created with Inkscape (http://www.inkscape.org/) -->

<svg
   width="108"
   height="108"
   viewBox="0 0 108 108"
   version="1.1"
   id="svg1434"
   inkscape:version="1.2.2 (b0a8486541, 2022-12-01)"
   sodipodi:docname="logo.svg"
   xmlns:inkscape="http://www.inkscape.org/namespaces/inkscape"
   xmlns:sodipodi="http://sodipodi.sourceforge.net/DTD/sodipodi-0.dtd"
   xmlns="http://www.w3.org/2000/svg"
   xmlns:svg="http://www.w3.org/2000/svg">
  <sodipodi:namedview
     id="namedview1436"
     pagecolor="#505050"
     bordercolor="#eeeeee"
     borderopacity="1"
     inkscape:showpageshadow="0"
     inkscape:pageopacity="0"
     inkscape:pagecheckerboard="0"
     inkscape:deskcolor="#505050"
     inkscape:document-units="mm"
     showgrid="true"
     inkscape:zoom="5.1288514"
     inkscape:cx="72.238396"
     inkscape:cy="59.662481"
     inkscape:window-width="1920"
     inkscape:window-height="1011"
     inkscape:window-x="0"
     inkscape:window-y="0"
     inkscape:window-maximized="1"
     inkscape:current-layer="g28775"
     showguides="false">
    <sodipodi:guide
       position="-91.88145,54.621253"
       orientation="1,0"
       id="guide15433"
       inkscape:locked="false" />
  </sodipodi:namedview>
  <defs
     id="defs1431">
    <inkscape:path-effect
       effect="fillet_chamfer"
       id="path-effect338"
       is_visible="true"
       lpeversion="1"
       nodesatellites_param="F,0,0,1,0,1.5875,0,1 @ F,0,0,1,0,1.5875,0,1 @ F,0,0,1,0,1.5875,0,1 @ F,0,0,1,0,1.5875,0,1 | F,0,0,1,0,1.5875,0,1 @ F,0,0,1,0,1.5875,0,1 @ F,0,0,1,0,1.5875,0,1 @ F,0,0,1,0,1.5875,0,1 @ F,0,0,1,0,1.5875,0,1 @ F,0,0,1,0,1.5875,0,1 | F,0,0,1,0,1.5875,0,1 @ F,0,0,1,0,1.5875,0,1 @ F,0,0,1,0,1.5875,0,1 @ F,0,0,1,0,1.5875,0,1 @ F,0,0,1,0,1.5875,0,1 @ F,0,0,1,0,1.5875,0,1 | F,0,0,1,0,1.5875,0,1 @ F,0,0,1,0,1.5875,0,1 @ F,0,0,1,0,1.5875,0,1 @ F,0,0,1,0,1.5875,0,1 @ F,0,0,1,0,1.5875,0,1 @ F,0,0,1,0,1.5875,0,1"
       unit="px"
       method="auto"
       mode="F"
       radius="6"
       chamfer_steps="1"
       flexible="false"
       use_knot_distance="true"
       apply_no_radius="true"
       apply_with_radius="true"
       only_selected="false"
       hide_knots="false" />
  </defs>
  <g
     inkscape:label="Calque 1"
     inkscape:groupmode="layer"
     id="layer1">
    <g
       id="g28775"
       transform="matrix(0.58435601,0,0,0.58435601,24.074041,15.331021)">
      <path
         id="path1614"
         style="fill:#df2424;fill-opacity:1;stroke-width:4.03602;paint-order:fill markers stroke"
         d="M 51.211854,20.142977 4.6520345,100.78695 h 2.1393086 c 0.8145941,-1.760837 3.1509321,-6.604066 4.3419639,-6.694844 1.442813,-0.109961 2.220661,5.258486 4.551913,4.468656 2.33125,-0.789826 2.569787,-16.937182 4.633358,-17.299074 2.06357,-0.361923 2.239667,15.477226 4.633358,15.418583 2.393692,-0.05864 1.852365,-24.697502 4.691276,-24.567658 2.838913,0.129837 1.800696,23.600045 4.575443,23.481714 2.774744,-0.118313 1.461208,-28.860977 4.633358,-28.873425 3.172147,-0.01243 1.043279,28.720895 4.633357,28.773878 3.590078,0.05299 1.489072,-27.903019 4.633357,-27.984759 3.144292,-0.08173 1.395779,28.719511 4.633358,28.944011 3.237583,0.224505 1.950978,-22.904501 4.633362,-22.768611 2.682383,0.135876 2.07157,23.29532 4.633356,23.702526 2.561788,0.4072 2.755202,-14.841196 4.606213,-14.875615 1.851006,-0.03427 2.512397,16.219505 4.660507,16.368785 2.148105,0.149284 3.00264,-7.927271 4.658695,-7.882138 1.656054,0.04515 2.371076,9.152951 4.629737,9.217851 2.258671,0.0649 2.894946,-2.861213 4.189935,-2.73658 1.045254,0.100579 2.555374,2.290004 4.019801,3.3067 h 8.987998 z" />
      <path
         id="path15431"
         style="font-variation-settings:normal;opacity:0.5;vector-effect:none;fill:#2fff2f;fill-opacity:1;stroke-width:0.449894;stroke-linecap:butt;stroke-linejoin:miter;stroke-miterlimit:4;stroke-dasharray:none;stroke-dashoffset:0;stroke-opacity:1;-inkscape-stroke:none;paint-order:fill markers stroke;stop-color:#000000"
         d="m 86.877076,23.364302 c -1.376179,0.476366 -2.465988,1.566138 -2.942404,2.942295 -0.285526,0.824758 -0.285521,2.292431 -5.8e-5,3.117108 0.476366,1.37618 1.566139,2.465988 2.942295,2.942404 0.824758,0.285526 2.292441,0.285219 3.117001,-5.83e-4 1.375341,-0.47671 2.464361,-1.56614 2.940556,-2.941654 0.285526,-0.824757 0.285522,-2.29243 5.8e-5,-3.117107 -0.476145,-1.375537 -1.565128,-2.465005 -2.940447,-2.941764 -0.82464,-0.285864 -2.292323,-0.286162 -3.117001,-6.99e-4 z m -44.852813,3.376063 c -0.296813,12.2446 4.262889,24.119867 12.678037,33.019524 0.602349,0.637031 1.61406,1.636284 2.258495,2.230694 9.002995,8.304136 20.931108,12.715105 33.170855,12.266525 0.876129,-0.03211 1.534992,-0.794209 1.473122,-1.668775 L 91.324915,68.63237 c -0.06187,-0.874566 -0.821097,-1.5299 -1.697383,-1.50321 -10.192646,0.310451 -20.105631,-3.356602 -27.64385,-10.224162 -0.648078,-0.59042 -1.659925,-1.589807 -2.258319,-2.230521 -6.960387,-7.452636 -10.749544,-17.320183 -10.565349,-27.51597 0.01584,-0.876555 -0.648841,-1.62783 -1.524091,-1.679132 l -3.961299,-0.232188 c -0.87525,-0.0513 -1.629115,0.616726 -1.650361,1.493178 z m 14.273777,0.834352 c -0.07352,8.140591 2.949356,16.013154 8.452036,22.012771 0.592564,0.646077 1.604653,1.645704 2.258012,2.230221 6.067272,5.427992 13.976236,8.353589 22.115235,8.179286 0.876468,-0.01877 1.53552,-0.782144 1.473668,-1.656712 L 90.317072,54.382374 C 90.25522,53.507806 89.495639,52.854399 88.619058,52.860911 82.527918,52.906161 76.627646,50.726239 72.031271,46.729389 71.369777,46.154177 70.357214,45.154082 69.773846,44.499774 65.720465,39.953483 63.468165,34.08198 63.438028,27.99097 c -0.0043,-0.876598 -0.667101,-1.628079 -1.542364,-1.679156 l -3.959298,-0.23105 c -0.875263,-0.05108 -1.630409,0.617326 -1.638326,1.493953 z m 14.2892,0.836324 c 0.123237,4.034529 1.612477,7.912769 4.221051,10.993056 0.566422,0.668848 1.580146,1.670088 2.255971,2.228162 3.112698,2.570364 7.010477,4.011947 11.046572,4.085292 0.876321,0.01593 1.53629,-0.750746 1.474438,-1.625314 L 89.305353,40.134326 C 89.243501,39.259758 88.48066,38.61334 87.607315,38.545812 85.623022,38.392384 83.720646,37.688941 82.113936,36.514463 81.406771,35.997537 80.388872,34.99219 79.863188,34.291512 78.669164,32.700011 77.942663,30.807753 77.764801,28.826098 77.686496,27.953652 77.030694,27.198839 76.15543,27.147776 l -3.96125,-0.231099 c -0.875264,-0.05106 -1.633699,0.61831 -1.60694,1.494364 z"
         inkscape:path-effect="#path-effect338"
         inkscape:original-d="m 88.435547,23.103516 a 4.7613712,4.7613712 0 0 0 -4.761719,4.761719 4.7613712,4.7613712 0 0 0 4.761719,4.761718 4.7613712,4.7613712 0 0 0 4.759765,-4.761718 4.7613712,4.7613712 0 0 0 -4.759765,-4.761719 z m -46.345703,2.050781 c -0.779462,13.330087 4.222455,26.357008 13.722656,35.740234 9.500201,9.383226 22.584891,14.221887 35.904297,13.277344 L 91.21289,67.048828 C 79.938881,67.848322 68.873333,63.754789 60.832032,55.812501 52.790729,47.87021 48.56094,36.855315 49.220703,25.572265 Z m 14.261718,0.833984 c -0.539589,9.227898 2.923383,18.246548 9.5,24.742188 6.576618,6.495641 15.636918,9.84723 24.857423,9.193359 L 90.205078,52.798829 C 83.02997,53.307649 75.984905,50.705095 70.867187,45.65039 65.749471,40.595687 63.060577,33.585158 63.480468,26.404297 Z m 14.257813,0.835938 c -0.299721,5.125707 1.62431,10.136087 5.277343,13.74414 3.653034,3.608054 8.688947,5.470619 13.810548,5.107423 l -0.503907,-7.125001 c -3.076204,0.21815 -6.092975,-0.897335 -8.287109,-3.064453 -2.194134,-2.167118 -3.346037,-5.167423 -3.166015,-8.246094 z" />
    </g>
  </g>
</svg>
